<svg width="761" height="130" viewBox="0 0 761 130" fill="none" xmlns="http://www.w3.org/2000/svg">
<path fill-rule="evenodd" clip-rule="evenodd" d="M67.9664 129.286C67.2693 129.424 66.5462 129.469 65.8136 129.414C43.1755 127.696 21.7483 115.192 9.54004 94.0462C-2.66842 72.9005 -2.78375 48.0913 7.04822 27.6272C8.47563 24.6562 11.5699 22.8697 14.8566 23.1191C23.2928 23.7592 31.5608 25.8972 39.2462 29.4222C45.0454 18.1146 53.6252 8.46843 64.0831 1.38618C66.8122 -0.46206 70.3818 -0.462061 73.111 1.38618C83.4268 8.37227 91.9153 17.8532 97.7101 28.9625C105.104 25.711 113.013 23.7308 121.076 23.1191C124.363 22.8697 127.457 24.6562 128.885 27.6272C138.717 48.0913 138.601 72.9005 126.393 94.0462C114.185 115.192 92.7573 127.696 70.1192 129.414C69.3866 129.469 68.6636 129.424 67.9664 129.286ZM84.5527 116.468C98.1222 111.853 110.124 102.487 117.847 89.112C128.126 71.3084 128.46 50.4896 120.537 33.0702C114.03 33.7015 107.662 35.3656 101.687 37.993C104.602 46.0099 106.191 54.6629 106.191 63.6873C106.191 84.2544 97.9336 102.893 84.5527 116.468ZM88.9734 33.5512C84.1322 24.2572 77.1187 16.2706 68.597 10.2616C59.8928 16.3993 52.7621 24.6002 47.9126 34.1502C55.631 39.0861 62.4879 45.579 67.9664 53.4905C73.6694 45.2549 80.8661 38.5563 88.9734 33.5512ZM73.5576 63.0618C78.516 54.6036 85.1947 47.769 92.8965 42.7484C95.1191 49.3222 96.3232 56.3643 96.3232 63.6873C96.3232 80.5934 89.9055 96.0023 79.3541 107.609C82.209 92.9473 80.4823 77.3314 73.5576 63.0618ZM62.3753 63.0618C57.6399 54.984 51.3354 48.387 44.0691 43.4367C41.9926 49.8129 40.8708 56.6193 40.8708 63.6873C40.8708 79.7264 46.6472 94.418 56.2495 105.794C53.8749 91.6639 55.7357 76.744 62.3753 63.0618ZM67.9664 112.432C71.6709 100.652 71.8233 87.8002 67.9664 75.617C64.1096 87.8002 64.262 100.652 67.9664 112.432ZM18.0862 89.112C26.1592 103.095 38.91 112.695 53.2388 117.067C39.5066 103.444 31.0026 84.5588 31.0026 63.6873C31.0026 54.8464 32.5284 46.3619 35.3311 38.4827C29.0448 35.5717 22.2983 33.7398 15.3963 33.0702C7.47259 50.4896 7.80728 71.3084 18.0862 89.112Z" fill="#4F46E5"/>
<path d="M205.464 97.3442C200.856 97.3442 196.728 96.6402 193.08 95.2322C189.432 93.7602 186.296 91.6482 183.672 88.8962C181.112 86.0802 179.128 82.6562 177.72 78.6242C176.376 74.5282 175.704 69.8562 175.704 64.6082C175.704 57.1202 177.016 50.9442 179.64 46.0802C182.264 41.1522 185.848 37.4722 190.392 35.0402C195 32.5442 200.184 31.2962 205.944 31.2962C210.424 31.2962 214.488 32.0322 218.136 33.5042C221.784 34.9122 224.888 37.0242 227.448 39.8402C230.072 42.5922 232.088 46.0482 233.496 50.2082C234.904 54.3042 235.608 59.0082 235.608 64.3202C235.608 69.7602 234.904 74.5282 233.496 78.6242C232.088 82.7202 230.04 86.1762 227.352 88.9922C224.728 91.7442 221.56 93.8242 217.848 95.2322C214.136 96.6402 210.008 97.3442 205.464 97.3442ZM205.848 86.3042C209.24 86.3042 212.088 85.4722 214.392 83.8082C216.696 82.1442 218.456 79.7442 219.672 76.6082C220.888 73.4722 221.496 69.6322 221.496 65.0882C221.496 60.3522 220.856 56.3202 219.576 52.9922C218.36 49.6642 216.568 47.1362 214.2 45.4082C211.832 43.6162 208.952 42.7202 205.56 42.7202C202.232 42.7202 199.384 43.5842 197.016 45.3122C194.712 46.9762 192.92 49.4082 191.64 52.6082C190.424 55.8082 189.816 59.7762 189.816 64.5122C189.816 67.9682 190.168 71.0722 190.872 73.8242C191.64 76.5122 192.696 78.7842 194.04 80.6402C195.384 82.4962 197.048 83.9042 199.032 84.8642C201.016 85.8242 203.288 86.3042 205.848 86.3042Z" fill="white"/>
<path d="M258.425 97.3442C255.609 97.3442 253.113 96.8002 250.937 95.7122C248.761 94.5602 247.065 92.9282 245.849 90.8162C244.633 88.7042 244.025 86.0802 244.025 82.9442C244.025 80.1922 244.537 77.8882 245.561 76.0322C246.649 74.1762 248.217 72.6722 250.265 71.5202C252.313 70.3682 254.841 69.4082 257.849 68.6402C260.857 67.8722 264.281 67.2002 268.121 66.6242C270.169 66.3042 271.833 66.0162 273.113 65.7602C274.457 65.4402 275.449 64.9602 276.089 64.3202C276.729 63.6162 277.049 62.6242 277.049 61.3442C277.049 59.5522 276.409 58.0162 275.129 56.7362C273.849 55.4562 271.833 54.8162 269.081 54.8162C267.225 54.8162 265.497 55.1362 263.897 55.7762C262.361 56.4162 261.017 57.3762 259.865 58.6562C258.777 59.9362 257.977 61.5682 257.465 63.5522L245.273 59.8082C246.041 57.1842 247.129 54.9122 248.537 52.9922C250.009 51.0722 251.769 49.4722 253.817 48.1922C255.865 46.8482 258.201 45.8562 260.825 45.2162C263.449 44.5762 266.297 44.2562 269.369 44.2562C274.297 44.2562 278.297 45.0562 281.369 46.6562C284.505 48.1922 286.841 50.6242 288.377 53.9522C289.913 57.2162 290.681 61.4402 290.681 66.6242V75.2642C290.681 77.5042 290.713 79.7762 290.777 82.0802C290.905 84.3842 291.033 86.7202 291.161 89.0882C291.353 91.3922 291.545 93.6962 291.737 96.0002H279.545C279.289 94.4002 279.033 92.5762 278.777 90.5282C278.585 88.4162 278.425 86.3042 278.297 84.1922H276.569C275.673 86.6242 274.393 88.8322 272.729 90.8162C271.065 92.8002 269.017 94.4002 266.585 95.6162C264.217 96.7682 261.497 97.3442 258.425 97.3442ZM264.281 87.3602C265.497 87.3602 266.713 87.1362 267.929 86.6882C269.209 86.2402 270.425 85.6322 271.577 84.8642C272.793 84.0322 273.881 83.0082 274.841 81.7922C275.865 80.5762 276.697 79.2002 277.337 77.6642L277.145 69.6002L279.353 70.0802C278.201 70.9122 276.857 71.5842 275.321 72.0962C273.785 72.5442 272.185 72.8962 270.521 73.1522C268.921 73.4082 267.321 73.6962 265.721 74.0162C264.121 74.3362 262.681 74.7522 261.401 75.2642C260.185 75.7762 259.193 76.4802 258.425 77.3762C257.721 78.2082 257.369 79.3922 257.369 80.9282C257.369 82.9122 258.009 84.4802 259.289 85.6322C260.569 86.7842 262.233 87.3602 264.281 87.3602Z" fill="white"/>
<path d="M322.934 97.3442C319.542 97.3442 316.47 97.0242 313.718 96.3842C310.966 95.7442 308.598 94.8162 306.614 93.6002C304.63 92.3842 303.03 90.9442 301.814 89.2802C300.598 87.5522 299.798 85.6322 299.414 83.5202L309.974 79.2002C310.23 80.6082 310.934 81.9202 312.086 83.1362C313.238 84.3522 314.774 85.3442 316.694 86.1122C318.678 86.8162 321.046 87.1682 323.798 87.1682C326.742 87.1682 329.014 86.7522 330.614 85.9202C332.214 85.0242 333.014 83.7762 333.014 82.1762C333.014 80.9602 332.566 80.0002 331.67 79.2962C330.774 78.5922 329.462 77.9842 327.734 77.4722C326.006 76.9602 323.926 76.4802 321.494 76.0322C319.126 75.4562 316.694 74.8482 314.198 74.2082C311.766 73.5682 309.494 72.6722 307.382 71.5202C305.334 70.3682 303.638 68.8642 302.294 67.0082C301.014 65.0882 300.374 62.6562 300.374 59.7122C300.374 56.6402 301.206 53.9522 302.87 51.6482C304.534 49.3442 306.966 47.5522 310.166 46.2722C313.366 44.9282 317.27 44.2562 321.878 44.2562C326.038 44.2562 329.686 44.8322 332.822 45.9842C335.958 47.0722 338.518 48.6722 340.502 50.7842C342.55 52.8322 343.926 55.2962 344.63 58.1762L333.398 61.9202C333.142 60.3842 332.502 59.0402 331.478 57.8882C330.518 56.7362 329.206 55.8722 327.542 55.2962C325.942 54.7202 324.054 54.4322 321.878 54.4322C319.126 54.4322 316.982 54.8802 315.446 55.7762C313.974 56.6722 313.238 57.8562 313.238 59.3282C313.238 60.5442 313.718 61.5362 314.678 62.3042C315.702 63.0722 317.11 63.7122 318.902 64.2242C320.694 64.6722 322.806 65.1522 325.238 65.6642C327.798 66.1762 330.294 66.7842 332.726 67.4882C335.158 68.1282 337.334 68.9922 339.254 70.0802C341.238 71.1682 342.806 72.6082 343.958 74.4002C345.11 76.1922 345.686 78.4962 345.686 81.3122C345.686 84.6402 344.79 87.5202 342.998 89.9522C341.206 92.3202 338.614 94.1442 335.222 95.4242C331.83 96.7042 327.734 97.3442 322.934 97.3442Z" fill="white"/>
<path d="M355.18 96.0002V45.6002H369.004V96.0002H355.18ZM362.188 38.0162C359.5 38.0162 357.42 37.4722 355.948 36.3842C354.54 35.2322 353.836 33.5682 353.836 31.3922C353.836 29.1522 354.54 27.4562 355.948 26.3042C357.42 25.1522 359.5 24.5762 362.188 24.5762C364.94 24.5762 367.02 25.1522 368.428 26.3042C369.9 27.4562 370.636 29.1522 370.636 31.3922C370.636 33.5042 369.9 35.1362 368.428 36.2882C367.02 37.4402 364.94 38.0162 362.188 38.0162Z" fill="white"/>
<path d="M401.965 97.3442C398.573 97.3442 395.501 97.0242 392.749 96.3842C389.997 95.7442 387.629 94.8162 385.645 93.6002C383.661 92.3842 382.061 90.9442 380.845 89.2802C379.629 87.5522 378.829 85.6322 378.445 83.5202L389.005 79.2002C389.261 80.6082 389.965 81.9202 391.117 83.1362C392.269 84.3522 393.805 85.3442 395.725 86.1122C397.709 86.8162 400.077 87.1682 402.829 87.1682C405.773 87.1682 408.045 86.7522 409.645 85.9202C411.245 85.0242 412.045 83.7762 412.045 82.1762C412.045 80.9602 411.597 80.0002 410.701 79.2962C409.805 78.5922 408.493 77.9842 406.765 77.4722C405.037 76.9602 402.957 76.4802 400.525 76.0322C398.157 75.4562 395.725 74.8482 393.229 74.2082C390.797 73.5682 388.525 72.6722 386.413 71.5202C384.365 70.3682 382.669 68.8642 381.325 67.0082C380.045 65.0882 379.405 62.6562 379.405 59.7122C379.405 56.6402 380.237 53.9522 381.901 51.6482C383.565 49.3442 385.997 47.5522 389.197 46.2722C392.397 44.9282 396.301 44.2562 400.909 44.2562C405.069 44.2562 408.717 44.8322 411.853 45.9842C414.989 47.0722 417.549 48.6722 419.533 50.7842C421.581 52.8322 422.957 55.2962 423.661 58.1762L412.429 61.9202C412.173 60.3842 411.533 59.0402 410.509 57.8882C409.549 56.7362 408.237 55.8722 406.573 55.2962C404.973 54.7202 403.085 54.4322 400.909 54.4322C398.157 54.4322 396.013 54.8802 394.477 55.7762C393.005 56.6722 392.269 57.8562 392.269 59.3282C392.269 60.5442 392.749 61.5362 393.709 62.3042C394.733 63.0722 396.141 63.7122 397.933 64.2242C399.725 64.6722 401.837 65.1522 404.269 65.6642C406.829 66.1762 409.325 66.7842 411.757 67.4882C414.189 68.1282 416.365 68.9922 418.285 70.0802C420.269 71.1682 421.837 72.6082 422.989 74.4002C424.141 76.1922 424.717 78.4962 424.717 81.3122C424.717 84.6402 423.821 87.5202 422.029 89.9522C420.237 92.3202 417.645 94.1442 414.253 95.4242C410.861 96.7042 406.765 97.3442 401.965 97.3442Z" fill="white"/>
<path d="M456.821 96.0002V32.6402H482.549C486.005 32.6402 489.141 32.9282 491.957 33.5042C494.773 34.0162 497.269 34.7842 499.445 35.8082C501.621 36.8322 503.445 38.1122 504.917 39.6482C506.453 41.1202 507.605 42.8482 508.373 44.8322C509.141 46.7522 509.525 48.8962 509.525 51.2642C509.525 53.5042 509.173 55.5522 508.469 57.4082C507.765 59.2002 506.709 60.7682 505.301 62.1122C503.893 63.4562 502.133 64.5762 500.021 65.4722C497.909 66.3042 495.445 66.8802 492.629 67.2002V68.6402C495.893 68.9602 498.485 69.7282 500.405 70.9442C502.389 72.0962 503.925 73.6642 505.013 75.6482C506.165 77.6322 507.157 80.0962 507.989 83.0402L511.829 96.0002H496.565L493.589 84.0002C493.013 81.4402 492.181 79.4562 491.093 78.0482C490.005 76.5762 488.629 75.5522 486.965 74.9762C485.301 74.3362 483.285 74.0162 480.917 74.0162H470.645V96.0002H456.821ZM470.645 63.6482H481.589C485.941 63.6482 489.301 62.8162 491.669 61.1522C494.037 59.4882 495.221 56.8962 495.221 53.3762C495.221 49.9202 494.101 47.3922 491.861 45.7922C489.685 44.1282 486.389 43.2962 481.973 43.2962H470.645V63.6482Z" fill="white"/>
<path d="M544.635 97.3442C540.475 97.3442 536.763 96.7682 533.499 95.6162C530.299 94.4642 527.579 92.8002 525.339 90.6242C523.099 88.4482 521.371 85.7602 520.155 82.5602C519.003 79.3602 518.427 75.7442 518.427 71.7122C518.427 67.7442 518.971 64.0962 520.059 60.7682C521.211 57.3762 522.875 54.4642 525.051 52.0322C527.227 49.5362 529.883 47.6162 533.019 46.2722C536.155 44.9282 539.707 44.2562 543.675 44.2562C547.515 44.2562 550.939 44.8962 553.947 46.1762C556.955 47.3922 559.451 49.2482 561.435 51.7442C563.483 54.2402 564.955 57.3122 565.851 60.9602C566.811 64.5442 567.163 68.6722 566.907 73.3442L527.355 73.7282V66.1442L558.939 65.8562L554.043 69.6962C554.491 66.3042 554.267 63.5202 553.371 61.3442C552.475 59.1682 551.163 57.5682 549.435 56.5442C547.771 55.5202 545.915 55.0082 543.867 55.0082C541.435 55.0082 539.291 55.6482 537.435 56.9282C535.579 58.2082 534.139 60.0962 533.115 62.5922C532.091 65.0242 531.579 67.9682 531.579 71.4242C531.579 76.8642 532.763 80.8642 535.131 83.4242C537.563 85.9842 540.731 87.2642 544.635 87.2642C546.427 87.2642 547.931 87.0402 549.147 86.5922C550.427 86.0802 551.451 85.4402 552.219 84.6722C553.051 83.9042 553.691 83.0402 554.139 82.0802C554.651 81.1202 555.067 80.1602 555.387 79.2002L567.387 81.7922C566.811 84.1602 565.947 86.3042 564.795 88.2242C563.707 90.0802 562.235 91.7122 560.379 93.1202C558.523 94.4642 556.283 95.4882 553.659 96.1922C551.099 96.9602 548.091 97.3442 544.635 97.3442Z" fill="white"/>
<path d="M597.715 97.3442C594.323 97.3442 591.251 97.0242 588.499 96.3842C585.747 95.7442 583.379 94.8162 581.395 93.6002C579.411 92.3842 577.811 90.9442 576.595 89.2802C575.379 87.5522 574.579 85.6322 574.195 83.5202L584.755 79.2002C585.011 80.6082 585.715 81.9202 586.867 83.1362C588.019 84.3522 589.555 85.3442 591.475 86.1122C593.459 86.8162 595.827 87.1682 598.579 87.1682C601.523 87.1682 603.795 86.7522 605.395 85.9202C606.995 85.0242 607.795 83.7762 607.795 82.1762C607.795 80.9602 607.347 80.0002 606.451 79.2962C605.555 78.5922 604.243 77.9842 602.515 77.4722C600.787 76.9602 598.707 76.4802 596.275 76.0322C593.907 75.4562 591.475 74.8482 588.979 74.2082C586.547 73.5682 584.275 72.6722 582.163 71.5202C580.115 70.3682 578.419 68.8642 577.075 67.0082C575.795 65.0882 575.155 62.6562 575.155 59.7122C575.155 56.6402 575.987 53.9522 577.651 51.6482C579.315 49.3442 581.747 47.5522 584.947 46.2722C588.147 44.9282 592.051 44.2562 596.659 44.2562C600.819 44.2562 604.467 44.8322 607.603 45.9842C610.739 47.0722 613.299 48.6722 615.283 50.7842C617.331 52.8322 618.707 55.2962 619.411 58.1762L608.179 61.9202C607.923 60.3842 607.283 59.0402 606.259 57.8882C605.299 56.7362 603.987 55.8722 602.323 55.2962C600.723 54.7202 598.835 54.4322 596.659 54.4322C593.907 54.4322 591.763 54.8802 590.227 55.7762C588.755 56.6722 588.019 57.8562 588.019 59.3282C588.019 60.5442 588.499 61.5362 589.459 62.3042C590.483 63.0722 591.891 63.7122 593.683 64.2242C595.475 64.6722 597.587 65.1522 600.019 65.6642C602.579 66.1762 605.075 66.7842 607.507 67.4882C609.939 68.1282 612.115 68.9922 614.035 70.0802C616.019 71.1682 617.587 72.6082 618.739 74.4002C619.891 76.1922 620.467 78.4962 620.467 81.3122C620.467 84.6402 619.571 87.5202 617.779 89.9522C615.987 92.3202 613.395 94.1442 610.003 95.4242C606.611 96.7042 602.515 97.3442 597.715 97.3442Z" fill="white"/>
<path d="M653.278 97.3442C648.222 97.3442 643.774 96.3522 639.934 94.3682C636.094 92.3202 633.086 89.3442 630.91 85.4402C628.734 81.4722 627.646 76.5442 627.646 70.6562C627.646 64.7682 628.734 59.8722 630.91 55.9682C633.15 52.0642 636.19 49.1522 640.03 47.2322C643.934 45.2482 648.35 44.2562 653.278 44.2562C658.334 44.2562 662.782 45.2482 666.622 47.2322C670.526 49.2162 673.566 52.1922 675.742 56.1602C677.982 60.0642 679.102 64.9602 679.102 70.8482C679.102 76.8002 677.95 81.7602 675.646 85.7282C673.406 89.6322 670.334 92.5442 666.43 94.4642C662.59 96.3842 658.206 97.3442 653.278 97.3442ZM653.758 87.0722C656.254 87.0722 658.334 86.4962 659.998 85.3442C661.726 84.1922 663.006 82.4642 663.838 80.1602C664.734 77.7922 665.182 74.9442 665.182 71.6162C665.182 68.0962 664.702 65.1202 663.742 62.6882C662.846 60.1922 661.502 58.3042 659.71 57.0242C657.918 55.6802 655.646 55.0082 652.894 55.0082C650.526 55.0082 648.478 55.5842 646.75 56.7362C645.022 57.8242 643.71 59.5522 642.814 61.9202C641.918 64.2242 641.47 67.0722 641.47 70.4642C641.47 75.9042 642.558 80.0322 644.734 82.8482C646.91 85.6642 649.918 87.0722 653.758 87.0722Z" fill="white"/>
<path d="M688.93 96.0002V45.6002H700.354L700.45 62.7842H702.274C702.786 58.4962 703.65 55.0082 704.866 52.3202C706.146 49.6322 707.906 47.6482 710.146 46.3682C712.386 45.0882 715.17 44.4482 718.498 44.4482C719.074 44.4482 719.682 44.4802 720.322 44.5442C721.026 44.5442 721.826 44.6402 722.722 44.8322L722.146 59.5202C721.186 59.0722 720.13 58.7522 718.978 58.5602C717.826 58.3682 716.802 58.2722 715.906 58.2722C713.41 58.2722 711.266 58.8482 709.474 60.0002C707.682 61.1522 706.21 62.8162 705.058 64.9922C703.97 67.1042 703.234 69.6962 702.85 72.7682V96.0002H688.93Z" fill="white"/>
<path d="M751.056 97.1522C745.424 97.1522 741.264 95.6802 738.576 92.7362C735.952 89.7282 734.64 84.9602 734.64 78.4322V56.4482H727.344L727.536 45.6002H732.624C734.608 45.6002 736.08 45.3122 737.04 44.7362C738 44.1602 738.576 43.1042 738.768 41.5682L740.016 34.3682H747.888V45.6002H760.656V56.8322H747.888V77.8562C747.888 80.1602 748.432 81.8242 749.52 82.8482C750.608 83.8722 752.272 84.3842 754.512 84.3842C755.728 84.3842 756.88 84.2562 757.968 84.0002C759.12 83.7442 760.112 83.3282 760.944 82.7522V95.6162C758.96 96.2562 757.136 96.6722 755.472 96.8642C753.808 97.0562 752.336 97.1522 751.056 97.1522Z" fill="white"/>
</svg>
